<mxfile host="app.diagrams.net" agent="Mozilla/5.0 (Windows NT 10.0; Win64; x64; rv:133.0) Gecko/20100101 Firefox/133.0" version="25.0.3">
  <diagram name="Page-1" id="Lhf47WYGTWUq5QnkIojZ">
    <mxGraphModel dx="258" dy="1019" grid="1" gridSize="10" guides="1" tooltips="1" connect="1" arrows="1" fold="1" page="1" pageScale="1" pageWidth="827" pageHeight="1169" math="0" shadow="0">
      <root>
        <mxCell id="0" />
        <mxCell id="1" parent="0" />
        <mxCell id="j7UzaK5bINsZdUrTMRW8-4" value="" style="edgeStyle=orthogonalEdgeStyle;rounded=0;orthogonalLoop=1;jettySize=auto;html=1;" edge="1" parent="1" source="j7UzaK5bINsZdUrTMRW8-1" target="j7UzaK5bINsZdUrTMRW8-3">
          <mxGeometry relative="1" as="geometry" />
        </mxCell>
        <mxCell id="j7UzaK5bINsZdUrTMRW8-1" value="Начало" style="html=1;dashed=0;whiteSpace=wrap;shape=mxgraph.dfd.start" vertex="1" parent="1">
          <mxGeometry x="1770" y="530" width="210" height="30" as="geometry" />
        </mxCell>
        <mxCell id="j7UzaK5bINsZdUrTMRW8-2" value="void run" style="text;html=1;align=center;verticalAlign=middle;resizable=0;points=[];autosize=1;strokeColor=none;fillColor=none;" vertex="1" parent="1">
          <mxGeometry x="1840" y="500" width="70" height="30" as="geometry" />
        </mxCell>
        <mxCell id="j7UzaK5bINsZdUrTMRW8-6" value="" style="edgeStyle=orthogonalEdgeStyle;rounded=0;orthogonalLoop=1;jettySize=auto;html=1;" edge="1" parent="1" source="j7UzaK5bINsZdUrTMRW8-3" target="j7UzaK5bINsZdUrTMRW8-5">
          <mxGeometry relative="1" as="geometry" />
        </mxCell>
        <mxCell id="j7UzaK5bINsZdUrTMRW8-3" value="Вывод имени потока" style="shape=parallelogram;perimeter=parallelogramPerimeter;whiteSpace=wrap;html=1;fixedSize=1;" vertex="1" parent="1">
          <mxGeometry x="1770" y="600" width="210" height="60" as="geometry" />
        </mxCell>
        <mxCell id="j7UzaK5bINsZdUrTMRW8-8" value="" style="edgeStyle=orthogonalEdgeStyle;rounded=0;orthogonalLoop=1;jettySize=auto;html=1;" edge="1" parent="1" source="j7UzaK5bINsZdUrTMRW8-5" target="j7UzaK5bINsZdUrTMRW8-7">
          <mxGeometry relative="1" as="geometry" />
        </mxCell>
        <mxCell id="j7UzaK5bINsZdUrTMRW8-5" value="Вычисление логарифма" style="rounded=0;whiteSpace=wrap;html=1;" vertex="1" parent="1">
          <mxGeometry x="1770" y="700" width="210" height="60" as="geometry" />
        </mxCell>
        <mxCell id="j7UzaK5bINsZdUrTMRW8-10" value="" style="edgeStyle=orthogonalEdgeStyle;rounded=0;orthogonalLoop=1;jettySize=auto;html=1;" edge="1" parent="1" source="j7UzaK5bINsZdUrTMRW8-7" target="j7UzaK5bINsZdUrTMRW8-9">
          <mxGeometry relative="1" as="geometry" />
        </mxCell>
        <mxCell id="j7UzaK5bINsZdUrTMRW8-7" value="Thread.sleep(0)" style="rounded=0;whiteSpace=wrap;html=1;" vertex="1" parent="1">
          <mxGeometry x="1770" y="800" width="210" height="60" as="geometry" />
        </mxCell>
        <mxCell id="j7UzaK5bINsZdUrTMRW8-12" style="edgeStyle=orthogonalEdgeStyle;rounded=0;orthogonalLoop=1;jettySize=auto;html=1;" edge="1" parent="1" source="j7UzaK5bINsZdUrTMRW8-9" target="j7UzaK5bINsZdUrTMRW8-11">
          <mxGeometry relative="1" as="geometry">
            <Array as="points">
              <mxPoint x="2010" y="940" />
              <mxPoint x="2010" y="1010" />
              <mxPoint x="1875" y="1010" />
            </Array>
          </mxGeometry>
        </mxCell>
        <mxCell id="j7UzaK5bINsZdUrTMRW8-15" style="edgeStyle=orthogonalEdgeStyle;rounded=0;orthogonalLoop=1;jettySize=auto;html=1;entryX=0.5;entryY=0;entryDx=0;entryDy=0;" edge="1" parent="1" source="j7UzaK5bINsZdUrTMRW8-9" target="j7UzaK5bINsZdUrTMRW8-13">
          <mxGeometry relative="1" as="geometry">
            <Array as="points">
              <mxPoint x="1730" y="940" />
              <mxPoint x="1730" y="1130" />
              <mxPoint x="1875" y="1130" />
            </Array>
          </mxGeometry>
        </mxCell>
        <mxCell id="j7UzaK5bINsZdUrTMRW8-9" value="Возникло исключение &lt;br&gt;InterruptedException?" style="rhombus;whiteSpace=wrap;html=1;" vertex="1" parent="1">
          <mxGeometry x="1770" y="900" width="210" height="80" as="geometry" />
        </mxCell>
        <mxCell id="j7UzaK5bINsZdUrTMRW8-14" value="" style="edgeStyle=orthogonalEdgeStyle;rounded=0;orthogonalLoop=1;jettySize=auto;html=1;" edge="1" parent="1" source="j7UzaK5bINsZdUrTMRW8-11" target="j7UzaK5bINsZdUrTMRW8-13">
          <mxGeometry relative="1" as="geometry" />
        </mxCell>
        <mxCell id="j7UzaK5bINsZdUrTMRW8-11" value="Вывод сообщения о &lt;br&gt;прерванном потоке &lt;br&gt;и его имени" style="shape=parallelogram;perimeter=parallelogramPerimeter;whiteSpace=wrap;html=1;fixedSize=1;" vertex="1" parent="1">
          <mxGeometry x="1770" y="1040" width="210" height="60" as="geometry" />
        </mxCell>
        <mxCell id="j7UzaK5bINsZdUrTMRW8-20" value="" style="edgeStyle=orthogonalEdgeStyle;rounded=0;orthogonalLoop=1;jettySize=auto;html=1;" edge="1" parent="1" source="j7UzaK5bINsZdUrTMRW8-13" target="j7UzaK5bINsZdUrTMRW8-19">
          <mxGeometry relative="1" as="geometry" />
        </mxCell>
        <mxCell id="j7UzaK5bINsZdUrTMRW8-13" value="Вывод сообщения о &lt;br&gt;завершении потока&lt;br&gt;с его именем" style="shape=parallelogram;perimeter=parallelogramPerimeter;whiteSpace=wrap;html=1;fixedSize=1;" vertex="1" parent="1">
          <mxGeometry x="1770" y="1160" width="210" height="60" as="geometry" />
        </mxCell>
        <mxCell id="j7UzaK5bINsZdUrTMRW8-16" value="Нет" style="text;html=1;align=center;verticalAlign=middle;resizable=0;points=[];autosize=1;strokeColor=none;fillColor=none;" vertex="1" parent="1">
          <mxGeometry x="1740" y="908" width="40" height="30" as="geometry" />
        </mxCell>
        <mxCell id="j7UzaK5bINsZdUrTMRW8-17" value="Да" style="text;html=1;align=center;verticalAlign=middle;resizable=0;points=[];autosize=1;strokeColor=none;fillColor=none;" vertex="1" parent="1">
          <mxGeometry x="1970" y="908" width="40" height="30" as="geometry" />
        </mxCell>
        <mxCell id="j7UzaK5bINsZdUrTMRW8-19" value="Конец" style="html=1;dashed=0;whiteSpace=wrap;shape=mxgraph.dfd.start" vertex="1" parent="1">
          <mxGeometry x="1770" y="1260" width="210" height="30" as="geometry" />
        </mxCell>
      </root>
    </mxGraphModel>
  </diagram>
</mxfile>
